# xmcd CD database file
#
# Track frame offsets:
#	150
#	21739
#	37786
#	54026
#	67054
#	85782
#	101699
#	119346
#	137099
#	158057
#	170962
#	197261
#
# Disc length: 2960 seconds
#
# Revision: 0
# Processed by: cddbd v1.5.1PL0 Copyright (c) Steve Scherf et al.
# Submitted via: CDex 1.51
#
DISCID=9d0b8e0c
DTITLE=Mike Strickland - Jazz, Blues and Boogie
DYEAR=2000
DGENRE=Jazz
TTITLE0=Stormy Weather
TTITLE1=Take 5
TTITLE2=Sweet Lorraine
TTITLE3=Oh, Good Grief
TTITLE4=Here's That Rainy Day
TTITLE5=Pink Panther
TTITLE6=Lover Man
TTITLE7=In De Back Room
TTITLE8=Summertime
TTITLE9=New Orleans Boogie
TTITLE10=All Blues
TTITLE11=Georgia On My Mind
EXTD=YEAR: 2000
EXTT0=
EXTT1=
EXTT2=
EXTT3=
EXTT4=
EXTT5=
EXTT6=
EXTT7=
EXTT8=
EXTT9=
EXTT10=
EXTT11=
PLAYORDER=
